<?xml version="1.0" encoding="utf-8"?><svg viewBox="0 0 25 17" xmlns="http://www.w3.org/2000/svg" xmlns:xlink="http://www.w3.org/1999/xlink"><style>:root>svg{display:none}:root>svg:target{display:block}</style><svg viewBox="0 0 12 7" id="arrow" xmlns="http://www.w3.org/2000/svg"><path d="M6 7a.513.513 0 01-.386-.17L.16.995a.612.612 0 010-.825.52.52 0 01.771 0L6 5.591l5.069-5.42a.52.52 0 01.771 0 .612.612 0 010 .825L6.386 6.829A.513.513 0 016 7z"/></svg><svg viewBox="0 0 25 15" id="vk" xmlns="http://www.w3.org/2000/svg"><path d="M21.853 5.93c.35-.453.629-.816.834-1.09 1.48-1.968 2.121-3.225 1.925-3.773L24.535.94c-.051-.077-.184-.148-.398-.212-.214-.064-.488-.074-.821-.032L19.62.72a1.052 1.052 0 00-.423.044l-.064.032-.052.039a.567.567 0 00-.14.135.873.873 0 00-.13.224 20.925 20.925 0 01-1.372 2.888c-.317.53-.608.99-.873 1.38-.265.389-.487.675-.667.859a4.63 4.63 0 01-.488.442c-.145.112-.256.159-.333.142a6.454 6.454 0 01-.218-.052.847.847 0 01-.289-.314 1.41 1.41 0 01-.148-.5 5.41 5.41 0 01-.044-.52c-.005-.146-.003-.35.006-.616.009-.266.013-.445.013-.54 0-.324.006-.677.02-1.058.012-.38.023-.682.031-.905.009-.222.013-.457.013-.705 0-.248-.015-.443-.045-.584a2.039 2.039 0 00-.135-.41.689.689 0 00-.263-.309 1.484 1.484 0 00-.43-.173c-.454-.103-1.03-.158-1.732-.167C10.266.037 9.243.14 8.79.361c-.18.095-.342.223-.488.385-.154.189-.175.292-.064.308.514.077.877.261 1.09.552l.078.154c.06.112.12.308.18.59.06.283.098.595.115.937a9.97 9.97 0 010 1.604c-.043.445-.083.792-.122 1.04-.038.247-.096.448-.173.602a2.522 2.522 0 01-.154.283.226.226 0 01-.064.064.963.963 0 01-.347.064c-.12 0-.265-.06-.436-.18a3.035 3.035 0 01-.532-.494 6.567 6.567 0 01-.623-.879 15.24 15.24 0 01-.718-1.334l-.206-.373c-.128-.239-.303-.588-.526-1.045-.222-.458-.42-.9-.59-1.328A.85.85 0 004.902.9L4.838.861a.873.873 0 00-.205-.108 1.383 1.383 0 00-.296-.084L.821.695C.462.695.218.776.09.939l-.051.077A.414.414 0 000 1.22c0 .094.026.21.077.346a42.351 42.351 0 001.675 3.49c.603 1.121 1.127 2.024 1.572 2.709.445.684.898 1.33 1.36 1.937.462.608.768.997.917 1.168.15.171.268.3.353.385l.321.308c.205.205.507.451.905.738s.838.569 1.322.847a7.162 7.162 0 001.687.68 5.814 5.814 0 001.873.211h1.476c.3-.025.526-.119.68-.282l.052-.064a.872.872 0 00.096-.237c.03-.107.045-.225.045-.353-.009-.367.02-.7.083-.994.064-.295.137-.518.218-.668a1.64 1.64 0 01.495-.564c.042-.021.077-.036.102-.045.205-.069.447-.002.725.199.278.201.54.449.783.744.244.295.537.626.879.995.342.367.641.64.898.82l.257.155c.171.102.393.196.667.282.274.085.514.107.719.064l3.285-.051c.325 0 .577-.053.757-.16.18-.107.287-.225.32-.353a.996.996 0 00.007-.437 1.595 1.595 0 00-.09-.34 1.738 1.738 0 00-.083-.16c-.428-.77-1.245-1.715-2.451-2.836l-.026-.025-.013-.013-.012-.013h-.013c-.548-.522-.894-.872-1.04-1.052-.265-.342-.325-.689-.18-1.04.103-.265.488-.826 1.155-1.681z"/></svg><svg viewBox="0 0 23 17" id="yt" xmlns="http://www.w3.org/2000/svg"><path d="M22.526 2.52A2.881 2.881 0 0020.5.492c-1.8-.492-9-.492-9-.492S4.302 0 2.502.474A2.94 2.94 0 00.474 2.52C0 4.32 0 8.052 0 8.052s0 3.751.474 5.532A2.882 2.882 0 002.5 15.61c1.819.493 8.999.493 8.999.493s7.2 0 8.999-.474a2.882 2.882 0 002.027-2.027C23 11.803 23 8.07 23 8.07s.019-3.752-.474-5.551zM9.208 11.5V4.604l5.986 3.448L9.208 11.5z"/></svg></svg>