<?xml version="1.0" encoding="utf-8"?><svg viewBox="0 0 20 20" xmlns="http://www.w3.org/2000/svg" xmlns:xlink="http://www.w3.org/1999/xlink"><style>:root>svg{display:none}:root>svg:target{display:block}</style><svg fill="none" viewBox="0 0 18 13" id="arenda" xmlns="http://www.w3.org/2000/svg"><path d="M.75 8.875h16.5M.75 12.042h11m-11-9.5h7.333M.75 5.708h7.333m7.7 0h-2.566c-.514 0-.77 0-.966-.086a.865.865 0 01-.401-.346c-.1-.17-.1-.391-.1-.834V2.225c0-.443 0-.665.1-.834a.865.865 0 01.4-.346c.197-.087.453-.087.967-.087h2.566c.514 0 .77 0 .967.087a.865.865 0 01.4.346c.1.169.1.39.1.834v2.217c0 .443 0 .665-.1.834a.865.865 0 01-.4.346c-.197.086-.453.086-.967.086z" stroke="#2B6482" stroke-linecap="round" stroke-linejoin="round"/></svg><svg fill="none" viewBox="0 0 11 6" id="arrow" xmlns="http://www.w3.org/2000/svg"><path d="M5.594 5.333l4.838-5H.756l4.838 5z" fill="#2B6482"/></svg><svg fill="none" viewBox="0 0 17 20" id="complex" xmlns="http://www.w3.org/2000/svg"><path d="M16.48 19.333h-1.135c.012-.11.017-.221.017-.333 0-.94-.454-1.742-1.117-2.113V5.667c0-.2-.112-.334-.28-.334h-4.19v-5c0-.2-.11-.333-.278-.333H1.955c-.167 0-.28.133-.28.333v19H.28c-.167 0-.279.134-.279.334S.112 20 .28 20H16.478c.168 0 .28-.133.28-.333s-.112-.334-.28-.334zm-2.794-2.643a1.613 1.613 0 00-.892.1.256.256 0 00-.225-.123c-.168 0-.28.133-.28.333v.102a2.115 2.115 0 00-.335.365c-.231-.346-.53-.595-.866-.717a.257.257 0 00-.195-.083.28.28 0 00-.087.013 1.387 1.387 0 00-.192-.013 1.256 1.256 0 00-.59.13 1.656 1.656 0 00-.658-.397l-.007-.002a1.545 1.545 0 00-.114-.03l-.022-.005a1.396 1.396 0 00-.129-.02l-.037-.004-.04-.003a1.412 1.412 0 00-.14-.001l-.04.002-.016.001c-.255.02-.505.106-.721.258V6H13.687v10.69zM2.234.667h6.983v4.666H7.821c-.168 0-.28.134-.28.334v10.366a2.086 2.086 0 00-.534-.456l-.019-.011a1.703 1.703 0 00-.643-.22h-.01a1.607 1.607 0 00-.19-.013 1.7 1.7 0 00-1.117.438v-.104c0-.2-.112-.334-.28-.334-.167 0-.279.134-.279.334v.666c0 .05.007.096.02.137-.137.27-.232.574-.271.897a1.723 1.723 0 00-.866.388v-.088c0-.2-.112-.334-.28-.334-.167 0-.279.134-.279.334v.666c0 .04.005.076.013.109-.139.267-.233.57-.272.891h-.3V.667zm2.108 17.34l.017-.002a1.295 1.295 0 01.11-.005c.168 0 .28-.133.28-.333 0-.934.614-1.667 1.396-1.667.698 0 1.285.6 1.368 1.433a.367.367 0 00.137.223l.013.01a.264.264 0 00.074.034c.017.007.035.01.055.008.092.002.178-.058.224-.141l.028-.034c.224-.333.53-.533.894-.533.189 0 .377.063.546.181a2.206 2.206 0 00-.546 1.486c0 .231.032.454.096.666H3.1c.131-.717.629-1.26 1.242-1.326zm5.352 1.326a1.633 1.633 0 01-.17-.7c0-.368.122-.7.332-.943a1.2 1.2 0 01.127-.122c.044 0 .088-.01.128-.035.614-.4 1.34-.033 1.564.7.028.1.112.2.252.2a.17.17 0 00.085-.028c.07-.013.125-.075.166-.172.108-.274.276-.493.48-.647a.25.25 0 00.112-.076c.191-.115.409-.177.637-.177.782 0 1.396.734 1.396 1.667 0 .1 0 .233-.027.333H9.694z" fill="#2B6482"/><path d="M9.217 8.667c-.168 0-.28.133-.28.333v.667c0 .2.112.333.28.333.167 0 .28-.133.28-.333V9c0-.2-.113-.333-.28-.333zM9.217 14.667c-.168 0-.28.133-.28.333v.667c0 .2.112.333.28.333.167 0 .28-.133.28-.333V15c0-.2-.113-.333-.28-.333zM9.217 10.667c-.168 0-.28.133-.28.333v.667c0 .2.112.333.28.333.167 0 .28-.133.28-.333V11c0-.2-.113-.333-.28-.333zM9.217 12.667c-.168 0-.28.133-.28.333v.667c0 .2.112.333.28.333.167 0 .28-.133.28-.333V13c0-.2-.113-.333-.28-.333zM9.217 6.667c-.168 0-.28.133-.28.333v.667c0 .2.112.333.28.333.167 0 .28-.133.28-.333V7c0-.2-.113-.333-.28-.333zM10.894 10c.167 0 .279-.133.279-.333V9c0-.2-.112-.333-.28-.333-.167 0-.279.133-.279.333v.667c0 .2.112.333.28.333zM10.894 8c.167 0 .279-.133.279-.333V7c0-.2-.112-.333-.28-.333-.167 0-.279.133-.279.333v.667c0 .2.112.333.28.333zM10.894 12c.167 0 .279-.133.279-.333V11c0-.2-.112-.333-.28-.333-.167 0-.279.133-.279.333v.667c0 .2.112.333.28.333zM10.894 14c.167 0 .279-.133.279-.333V13c0-.2-.112-.333-.28-.333-.167 0-.279.133-.279.333v.667c0 .2.112.333.28.333zM10.894 16c.167 0 .279-.133.279-.333V15c0-.2-.112-.333-.28-.333-.167 0-.279.133-.279.333v.667c0 .2.112.333.28.333zM12.57 12c.167 0 .279-.133.279-.333V11c0-.2-.112-.333-.28-.333-.167 0-.279.133-.279.333v.667c0 .2.112.333.28.333zM12.57 10c.167 0 .279-.133.279-.333V9c0-.2-.112-.333-.28-.333-.167 0-.279.133-.279.333v.667c0 .2.112.333.28.333zM12.57 16c.167 0 .279-.133.279-.333V15c0-.2-.112-.333-.28-.333-.167 0-.279.133-.279.333v.667c0 .2.112.333.28.333zM12.57 14c.167 0 .279-.133.279-.333V13c0-.2-.112-.333-.28-.333-.167 0-.279.133-.279.333v.667c0 .2.112.333.28.333zM12.57 8c.167 0 .279-.133.279-.333V7c0-.2-.112-.333-.28-.333-.167 0-.279.133-.279.333v.667c0 .2.112.333.28.333zM3.072 12.667c.168 0 .28-.134.28-.334v-.666c0-.2-.112-.334-.28-.334-.167 0-.279.134-.279.334v.666c0 .2.112.334.28.334zM3.072 14.667c.168 0 .28-.134.28-.334v-.666c0-.2-.112-.334-.28-.334-.167 0-.279.134-.279.334v.666c0 .2.112.334.28.334zM3.072 16.667c.168 0 .28-.134.28-.334v-.666c0-.2-.112-.334-.28-.334-.167 0-.279.134-.279.334v.666c0 .2.112.334.28.334zM3.072 2.667c.168 0 .28-.134.28-.334v-.666c0-.2-.112-.334-.28-.334-.167 0-.279.134-.279.334v.666c0 .2.112.334.28.334zM3.072 4.667c.168 0 .28-.134.28-.334v-.666c0-.2-.112-.334-.28-.334-.167 0-.279.134-.279.334v.666c0 .2.112.334.28.334zM3.072 6.667c.168 0 .28-.134.28-.334v-.666c0-.2-.112-.334-.28-.334-.167 0-.279.134-.279.334v.666c0 .2.112.334.28.334zM3.072 8.667c.168 0 .28-.134.28-.334v-.666c0-.2-.112-.334-.28-.334-.167 0-.279.134-.279.334v.666c0 .2.112.334.28.334zM3.072 10.667c.168 0 .28-.134.28-.334v-.666c0-.2-.112-.334-.28-.334-.167 0-.279.134-.279.334v.666c0 .2.112.334.28.334zM4.748 4.667c.168 0 .28-.134.28-.334v-.666c0-.2-.112-.334-.28-.334-.168 0-.28.134-.28.334v.666c0 .2.112.334.28.334zM4.748 2.667c.168 0 .28-.134.28-.334v-.666c0-.2-.112-.334-.28-.334-.168 0-.28.134-.28.334v.666c0 .2.112.334.28.334zM4.748 8.667c.168 0 .28-.134.28-.334v-.666c0-.2-.112-.334-.28-.334-.168 0-.28.134-.28.334v.666c0 .2.112.334.28.334zM4.748 6.667c.168 0 .28-.134.28-.334v-.666c0-.2-.112-.334-.28-.334-.168 0-.28.134-.28.334v.666c0 .2.112.334.28.334zM4.748 10.667c.168 0 .28-.134.28-.334v-.666c0-.2-.112-.334-.28-.334-.168 0-.28.134-.28.334v.666c0 .2.112.334.28.334zM4.748 12.667c.168 0 .28-.134.28-.334v-.666c0-.2-.112-.334-.28-.334-.168 0-.28.134-.28.334v.666c0 .2.112.334.28.334zM4.748 14.667c.168 0 .28-.134.28-.334v-.666c0-.2-.112-.334-.28-.334-.168 0-.28.134-.28.334v.666c0 .2.112.334.28.334zM6.424 6.667c.167 0 .28-.134.28-.334v-.666c0-.2-.113-.334-.28-.334-.168 0-.28.134-.28.334v.666c0 .2.112.334.28.334zM6.424 4.667c.167 0 .28-.134.28-.334v-.666c0-.2-.113-.334-.28-.334-.168 0-.28.134-.28.334v.666c0 .2.112.334.28.334zM6.424 2.667c.167 0 .28-.134.28-.334v-.666c0-.2-.113-.334-.28-.334-.168 0-.28.134-.28.334v.666c0 .2.112.334.28.334zM6.424 14.667c.167 0 .28-.134.28-.334v-.666c0-.2-.113-.334-.28-.334-.168 0-.28.134-.28.334v.666c0 .2.112.334.28.334zM6.424 12.667c.167 0 .28-.134.28-.334v-.666c0-.2-.113-.334-.28-.334-.168 0-.28.134-.28.334v.666c0 .2.112.334.28.334zM6.424 10.667c.167 0 .28-.134.28-.334v-.666c0-.2-.113-.334-.28-.334-.168 0-.28.134-.28.334v.666c0 .2.112.334.28.334zM6.424 8.667c.167 0 .28-.134.28-.334v-.666c0-.2-.113-.334-.28-.334-.168 0-.28.134-.28.334v.666c0 .2.112.334.28.334zM8.1 4.667c.167 0 .279-.134.279-.334v-.666c0-.2-.112-.334-.28-.334-.167 0-.279.134-.279.334v.666c0 .2.112.334.28.334zM8.1 2.667c.167 0 .279-.134.279-.334v-.666c0-.2-.112-.334-.28-.334-.167 0-.279.134-.279.334v.666c0 .2.112.334.28.334z" fill="#2B6482"/></svg><svg fill="none" viewBox="0 0 20 16" id="cost" xmlns="http://www.w3.org/2000/svg"><path d="M15.5 1h2.75c.506 0 .916.522.916 1.167v11.666c0 .645-.41 1.167-.916 1.167H8.166m2.75-14H1.75c-.507 0-.917.522-.917 1.167v11.666c0 .645.41 1.167.917 1.167H4.5m0-9.917v5.834m11-5.834v5.834M12.29 8c0 1.61-1.026 2.917-2.291 2.917-1.266 0-2.292-1.306-2.292-2.917 0-1.61 1.026-2.917 2.292-2.917 1.265 0 2.291 1.306 2.291 2.917z" stroke="#2B6482" stroke-linecap="round" stroke-linejoin="round"/></svg><svg fill="none" viewBox="0 0 16 18" id="rooms" xmlns="http://www.w3.org/2000/svg"><path d="M14.142 3.444H9.97V1.578c0-.33-.11-.647-.306-.88a.968.968 0 00-.737-.365h-7.3a.968.968 0 00-.737.365 1.38 1.38 0 00-.305.88V16.51c0 .33.11.647.305.88.196.233.461.364.738.365h12.513a.967.967 0 00.737-.366c.195-.233.305-.55.306-.879V4.69c-.001-.33-.111-.647-.306-.88a.968.968 0 00-.737-.365zm-7.82 13.067H4.235V13.4H6.32v3.111zm2.606 0H7.364V13.4c0-.33-.11-.646-.306-.88a.967.967 0 00-.737-.364H4.236a.968.968 0 00-.738.365 1.38 1.38 0 00-.305.879v3.111H1.629V1.578h7.299V16.51zm5.214 0H9.97V4.69h4.17V16.51zm-1.564-7.467c0 .124-.031.244-.088.346a.554.554 0 01-.234.23.445.445 0 01-.301.035.503.503 0 01-.267-.17.669.669 0 01-.143-.32.738.738 0 01.03-.359.613.613 0 01.191-.279.464.464 0 01.29-.105c.138 0 .271.066.369.183a.686.686 0 01.153.44zm-1.043-2.488c0-.124.03-.244.088-.346a.554.554 0 01.234-.23c.095-.047.2-.059.301-.035a.504.504 0 01.267.17.67.67 0 01.143.32c.02.12.01.245-.03.359a.612.612 0 01-.192.279.465.465 0 01-.29.105.481.481 0 01-.368-.183.686.686 0 01-.153-.44zM7.364 9.044c0 .124-.03.244-.088.346a.554.554 0 01-.234.23.445.445 0 01-.301.035.503.503 0 01-.267-.17.669.669 0 01-.143-.32.737.737 0 01.03-.359.612.612 0 01.192-.279.464.464 0 01.29-.105c.138 0 .27.066.368.183a.686.686 0 01.153.44zm0-2.488c0 .123-.03.243-.088.345a.554.554 0 01-.234.23.445.445 0 01-.301.035.503.503 0 01-.267-.17.669.669 0 01-.143-.32.737.737 0 01.03-.359.612.612 0 01.192-.279.464.464 0 01.29-.105c.138 0 .27.066.368.183a.686.686 0 01.153.44zm0-2.49c0 .124-.03.244-.088.347a.554.554 0 01-.234.229.445.445 0 01-.301.035.504.504 0 01-.267-.17.669.669 0 01-.143-.319.737.737 0 01.03-.36.612.612 0 01.192-.278.464.464 0 01.29-.106c.138 0 .27.066.368.183a.686.686 0 01.153.44zM4.236 9.045c0 .124-.031.244-.089.346a.554.554 0 01-.233.23.445.445 0 01-.301.035.503.503 0 01-.267-.17.669.669 0 01-.143-.32.737.737 0 01.03-.359.612.612 0 01.191-.279.464.464 0 01.29-.105c.138 0 .271.066.369.183a.686.686 0 01.153.44zm0-2.488c0 .123-.031.243-.089.345a.554.554 0 01-.233.23.445.445 0 01-.301.035.503.503 0 01-.267-.17.669.669 0 01-.143-.32.737.737 0 01.03-.359.612.612 0 01.191-.279.464.464 0 01.29-.105c.138 0 .271.066.369.183a.686.686 0 01.153.44zm0-2.49c0 .124-.031.244-.089.347a.554.554 0 01-.233.229.445.445 0 01-.301.035.503.503 0 01-.267-.17.669.669 0 01-.143-.319.737.737 0 01.03-.36.612.612 0 01.191-.278.464.464 0 01.29-.106c.138 0 .271.066.369.183a.686.686 0 01.153.44z" fill="#2B6482"/></svg><svg fill="none" viewBox="0 0 18 18" id="s" xmlns="http://www.w3.org/2000/svg"><path d="M16.5 5.25h-3.75V1.5A1.251 1.251 0 0011.5.25h-10A1.252 1.252 0 00.25 1.5v10a1.251 1.251 0 001.25 1.25h3.75v3.75a1.251 1.251 0 001.25 1.25h10a1.251 1.251 0 001.25-1.25v-10a1.251 1.251 0 00-1.25-1.25zm-15 6.25v-10h10v3.75h-5A1.252 1.252 0 005.25 6.5v5H1.5zm5 5v-3.75h5a1.251 1.251 0 001.25-1.25v-5h3.75v10h-10z" fill="#2B6482"/></svg></svg>